<!-- icon666.com - MILLIONS vector ICONS FREE --><svg viewBox="0 0 472 472" xmlns="http://www.w3.org/2000/svg" xmlns:xlink="http://www.w3.org/1999/xlink"><linearGradient id="a" gradientUnits="userSpaceOnUse" x1="44.016" x2="415.984" y1="371.96" y2="-.016"><stop offset="0" stop-color="#41dfd0"></stop><stop offset="1" stop-color="#ee83ef"></stop></linearGradient><path d="m240 8c-128.128906 0-232 103.871094-232 232s103.871094 232 232 232 232-103.871094 232-232c-.148438-128.066406-103.933594-231.851562-232-232zm0 448c-119.292969 0-216-96.707031-216-216s96.707031-216 216-216 216 96.707031 216 216c-.132812 119.238281-96.761719 215.867188-216 216zm-101.734375-242.105469c3.058594 2.808594 7.753906 2.808594 10.8125 0l48.738281-44.671875c10.289063-9.503906 13.085938-24.65625 6.863282-37.207031l-1.0625-2.128906c-4.785157-9.589844-14.128907-16.078125-24.789063-17.210938-10.65625-1.132812-21.15625 3.242188-27.851563 11.613281l-7.304687 9.136719-7.304687-9.128906c-6.683594-8.375-17.175782-12.761719-27.832032-11.636719-10.65625 1.121094-20.003906 7.597656-24.800781 17.179688l-1.078125 2.160156c-6.21875 12.554688-3.421875 27.703125 6.871094 37.207031zm-41.304687-74.695312 1.078124-2.152344c2.347657-4.707031 6.933594-7.890625 12.164063-8.441406 5.230469-.554688 10.382813 1.601562 13.660156 5.714843l13.601563 16.9375c1.566406 1.808594 3.84375 2.847657 6.238281 2.847657s4.671875-1.039063 6.242187-2.847657l13.597657-16.945312c3.28125-4.113281 8.433593-6.265625 13.664062-5.707031 5.230469.554687 9.816407 3.742187 12.160157 8.449219l1.066406 2.128906c3.054687 6.160156 1.683594 13.597656-3.371094 18.265625l-43.328125 39.71875-43.328125-39.71875c-5.074219-4.640625-6.476562-12.074219-3.445312-18.25zm270.550781-26.679688c-9.550781-.015625-18.585938 4.328125-24.535157 11.800781l-7.304687 9.136719-7.304687-9.128906c-6.683594-8.371094-17.175782-12.761719-27.832032-11.636719-10.65625 1.121094-20.003906 7.597656-24.800781 17.179688l-1.078125 2.160156c-6.21875 12.554688-3.421875 27.703125 6.871094 37.207031l48.738281 44.671875c3.058594 2.808594 7.753906 2.808594 10.8125 0l48.738281-44.671875c10.289063-9.503906 13.085938-24.65625 6.863282-37.207031l-1.0625-2.128906c-5.285157-10.683594-16.1875-17.429688-28.105469-17.398438zm11.488281 44.929688-43.328125 39.71875-43.328125-39.71875c-5.054688-4.660157-6.429688-12.089844-3.382812-18.25l1.078124-2.152344c2.347657-4.707031 6.933594-7.890625 12.164063-8.441406 5.230469-.554688 10.382813 1.601562 13.660156 5.714843l13.601563 16.9375c1.566406 1.808594 3.84375 2.847657 6.238281 2.847657s4.671875-1.039063 6.242187-2.847657l13.597657-16.945312c3.28125-4.113281 8.433593-6.265625 13.664062-5.707031 5.230469.554687 9.816407 3.742187 12.160157 8.449219l1.066406 2.128906c3.03125 6.171875 1.632812 13.601562-3.433594 18.25zm-277.34375 88.207031-32 32c-3.140625 3.03125-8.128906 2.988281-11.214844-.097656-3.085937-3.085938-3.128906-8.074219-.097656-11.214844l32-32c3.140625-3.03125 8.128906-2.988281 11.214844.097656 3.085937 3.085938 3.128906 8.074219.097656 11.214844zm40 0-32 32c-3.140625 3.03125-8.128906 2.988281-11.214844-.097656-3.085937-3.085938-3.128906-8.074219-.097656-11.214844l32-32c3.140625-3.03125 8.128906-2.988281 11.214844.097656 3.085937 3.085938 3.128906 8.074219.097656 11.214844zm40-11.3125c3.121094 3.125 3.121094 8.1875 0 11.3125l-32 32c-3.140625 3.03125-8.128906 2.988281-11.214844-.097656-3.085937-3.085938-3.128906-8.074219-.097656-11.214844l32-32c3.125-3.121094 8.1875-3.121094 11.3125 0zm160 0c3.121094 3.125 3.121094 8.1875 0 11.3125l-32 32c-3.140625 3.03125-8.128906 2.988281-11.214844-.097656-3.085937-3.085938-3.128906-8.074219-.097656-11.214844l32-32c3.125-3.121094 8.1875-3.121094 11.3125 0zm-3.3125 32 32-32c3.140625-3.03125 8.128906-2.988281 11.214844.097656 3.085937 3.085938 3.128906 8.074219.097656 11.214844l-32 32c-3.140625 3.03125-8.128906 2.988281-11.214844-.097656-3.085937-3.085938-3.128906-8.074219-.097656-11.214844zm40 0 32-32c3.140625-3.03125 8.128906-2.988281 11.214844.097656 3.085937 3.085938 3.128906 8.074219.097656 11.214844l-32 32c-3.140625 3.03125-8.128906 2.988281-11.214844-.097656-3.085937-3.085938-3.128906-8.074219-.097656-11.214844zm-34.34375 29.65625h-208c-4.417969 0-8 3.582031-8 8 .023438 33.914062 16.601562 65.683594 44.40625 85.105469.066406.046875.105469.125.167969.175781l.503906.320312c1.035156.71875 2.113281 1.367188 3.203125 2.046876 1.535156.984374 3.085938 1.945312 4.664062 2.839843 1.066407.613281 2.167969 1.207031 3.300782 1.785157 1.761718.917968 3.546875 1.773437 5.355468 2.582031.957032.433593 1.902344.886719 2.878907 1.289062 2.800781 1.160157 5.597656 2.214844 8.519531 3.128907l.921875.246093c2.671875.800781 5.375 1.496094 8.109375 2.089844.929688.199219 1.863281.367187 2.800781.542969 2.257813.421875 4.535157.800781 6.824219 1.039062.9375.113282 1.863281.242188 2.808594.320313 3.199218.296875 6.351562.488281 9.597656.488281h16c3.203125 0 6.402344-.191406 9.601562-.488281.945313-.078125 1.871094-.207031 2.808594-.320313 2.289063-.269531 4.566406-.617187 6.824219-1.039062.933594-.175782 1.871094-.34375 2.800781-.542969 2.734375-.59375 5.4375-1.28125 8.109375-2.089844l.921875-.246093c2.886719-.914063 5.71875-1.96875 8.519532-3.128907.976562-.402343 1.917968-.855469 2.878906-1.289062 1.808594-.800781 3.59375-1.664063 5.351562-2.582031 1.109375-.578126 2.210938-1.171876 3.304688-1.785157 1.601562-.894531 3.128906-1.855469 4.664062-2.839843 1.0625-.679688 2.144532-1.328126 3.199219-2.046876l.503906-.320312c.066407-.050781.105469-.128906.167969-.175781 27.757812-19.449219 44.285156-51.214844 44.28125-85.105469 0-4.417969-3.582031-8-8-8zm-54.238281 85.359375c-5.925781 3.21875-12.203125 5.738281-18.707031 7.511719-.886719.242187-1.789063.441406-2.6875.648437-2.398438.585938-4.910157 1.054688-7.398438 1.425781-.953125.144532-1.90625.300782-2.863281.414063-3.355469.40625-6.726563.621094-10.105469.640625h-16c-3.378906-.019531-6.75-.234375-10.105469-.640625-.957031-.113281-1.910156-.269531-2.863281-.414063-2.488281-.371093-4.960938-.839843-7.398438-1.425781-.898437-.207031-1.800781-.40625-2.6875-.648437-6.503906-1.773438-12.78125-4.292969-18.707031-7.511719l-.796875-.449219c27.933594-27.878906 73.167969-27.878906 101.101563 0zm14.125-9.542969c-16.507813-17.738281-39.652344-27.816406-63.886719-27.816406s-47.378906 10.078125-63.886719 27.816406c-18.152343-14.894531-29.585937-36.4375-31.753906-59.816406h191.28125c-2.167969 23.378906-13.601563 44.921875-31.753906 59.816406zm152.113281-315.816406h16v16h-16zm-16 0v16h-16v-16zm16 0h-16v-16h16zm-16 16h16v16h-16zm-376-48v16h-16v-16zm-48 16h-16v-16h16zm24-24h-16v-16h16zm-16 32h16v16h-16zm0 0" fill="url(#a)"></path></svg>